<svg xmlns="http://www.w3.org/2000/svg" viewBox="0 0 512 512" role="img" aria-label="Espresso portafilter icon">
  <g transform="rotate(-45 256 256)">
    <path d="M100 24h312v70H100z" fill="#e4e6e8"/>
    <circle cx="256" cy="178" r="154" fill="#e6e8ea"/>
    <circle cx="256" cy="178" r="128" fill="#b7babd"/>
    <circle cx="256" cy="178" r="106" fill="#c8cbce"/>
    <path d="M236 316h40v88h-40z" fill="#d9dcdf"/>
    <path d="M276 316h28v88h-28z" fill="#bfc3c7"/>
    <path d="M220 382h96a24 24 0 0 1 24 24v42a24 24 0 0 1-24 24h-96a24 24 0 0 1-24-24v-42a24 24 0 0 1 24-24z" fill="#e6e8ea"/>
    <path d="M248 446h244a52 52 0 0 1 52 52v38a52 52 0 0 1-52 52H248z" fill="#8b461d"/>
    <path d="M326 446h166a52 52 0 0 1 52 52v38a52 52 0 0 1-52 52H326a52 52 0 0 1-52-52v-38a52 52 0 0 1 52-52z" fill="#7a3510" opacity=".72"/>
    <path d="M340 468h132a34 34 0 0 1 34 34v28a34 34 0 0 1-34 34H340a34 34 0 0 1-34-34v-28a34 34 0 0 1 34-34z" fill="#9c5527" opacity=".36"/>
    <g fill="#aeb2b6">
      <circle cx="206" cy="122" r="10"/>
      <circle cx="256" cy="114" r="10"/>
      <circle cx="306" cy="122" r="10"/>
      <circle cx="178" cy="164" r="10"/>
      <circle cx="230" cy="158" r="10"/>
      <circle cx="282" cy="158" r="10"/>
      <circle cx="334" cy="164" r="10"/>
      <circle cx="178" cy="212" r="10"/>
      <circle cx="230" cy="206" r="10"/>
      <circle cx="282" cy="206" r="10"/>
      <circle cx="334" cy="212" r="10"/>
      <circle cx="206" cy="254" r="10"/>
      <circle cx="256" cy="262" r="10"/>
      <circle cx="306" cy="254" r="10"/>
    </g>
  </g>
</svg>
